HIERARCHY
ROOT Hips
{
	OFFSET 0.00000 0.00000 0.00000
	CHANNELS 6 Xposition Yposition Zposition Zrotation Yrotation Xrotation 
	JOINT LHipJoint
	{
		OFFSET 0 0 0
		CHANNELS 3 Zrotation Yrotation Xrotation
		JOINT LeftHip
		{
			OFFSET 1.44960 -1.75505 0.85172
			CHANNELS 3 Zrotation Yrotation Xrotation
			JOINT LeftKnee
			{
				OFFSET 2.40573 -6.60971 0.00000
				CHANNELS 3 Zrotation Yrotation Xrotation
				JOINT LeftAnkle
				{
					OFFSET 2.58773 -7.10974 0.00000
					CHANNELS 3 Zrotation Yrotation Xrotation
					JOINT LeftToe
					{
						OFFSET 0.18252 -0.50147 1.77316
						CHANNELS 3 Zrotation Yrotation Xrotation
						End Site
						{
							OFFSET 0.00000 -0.00000 0.92990
						}
					}
				}
			}
		}
	}
	JOINT RHipJoint
	{
		OFFSET 0 0 0
		CHANNELS 3 Zrotation Yrotation Xrotation
		JOINT RightHip
		{
			OFFSET -1.40744 -1.75505 0.85172
			CHANNELS 3 Zrotation Yrotation Xrotation
			JOINT RightKnee
			{
				OFFSET -2.43714 -6.69600 0.00000
				CHANNELS 3 Zrotation Yrotation Xrotation
				JOINT RightAnkle
				{
					OFFSET -2.51650 -6.91404 0.00000
					CHANNELS 3 Zrotation Yrotation Xrotation
					JOINT RightToe
					{
						OFFSET -0.25383 -0.69740 1.96384
						CHANNELS 3 Zrotation Yrotation Xrotation
						End Site
						{
							OFFSET -0.00000 -0.00000 1.04244
						}
					}
				}
			}
		}
	}
	JOINT lowerback
	{
		OFFSET 0 0 0
		CHANNELS 3 Zrotation Yrotation Xrotation
		JOINT Chest
		{
			OFFSET 0.00579 2.14458 -0.24367
			CHANNELS 3 Zrotation Yrotation Xrotation
			JOINT Chest2
			{
				OFFSET 0.05899 2.16316 -0.04515
				CHANNELS 3 Zrotation Yrotation Xrotation
				JOINT lowerneck
				{
					OFFSET 0 0 0
					CHANNELS 3 Zrotation Yrotation Xrotation
					JOINT Neck
					{
						OFFSET -0.01650 1.59577 0.24841
						CHANNELS 3 Zrotation Yrotation Xrotation
						JOINT Head
						{
							OFFSET -0.01016 1.63072 -0.17782
							CHANNELS 3 Zrotation Yrotation Xrotation
							End Site
							{
								OFFSET -0.00250 1.64111 -0.08717
							}
						}
					}
				}
				JOINT LeftCollar
				{
					OFFSET 0 0 0
					CHANNELS 3 Zrotation Yrotation Xrotation
					JOINT LeftShoulder
					{
						OFFSET 3.17745 0.95174 -0.45729
CHANNELS 3 Zrotation Xrotation Yrotation
						JOINT LeftElbow
						{
OFFSET 0 -4.934850 0.000000
CHANNELS 3 Zrotation Xrotation Yrotation
							JOINT LeftWrist
							{
OFFSET 0 -3.417190 -0.000000
CHANNELS 3 Zrotation Xrotation Yrotation
								JOINT lhand
								{
									OFFSET 0 0 0
CHANNELS 3 Zrotation Xrotation Yrotation
									JOINT LFingers
									{
OFFSET 0 -0.624100 -0.000000
CHANNELS 3 Zrotation Xrotation Yrotation
										End Site
										{
OFFSET 0 -0.503170 -0.000000
										}
									}
								}
								JOINT LThumb
								{
OFFSET 0 0.000000 0.000000
CHANNELS 3 Zrotation Xrotation Yrotation
									End Site
									{
OFFSET 0 -0.510850 0.510850
									}
								}
							}
						}
					}
				}
				JOINT RightCollar
				{
					OFFSET 0 0 0
					CHANNELS 3 Zrotation Yrotation Xrotation
					JOINT RightShoulder
					{
						OFFSET -2.87924 1.13038 -0.75204
CHANNELS 3 Zrotation Xrotation Yrotation
						JOINT RightElbow
						{
OFFSET 0 -5.220340 0.000000
CHANNELS 3 Zrotation Xrotation Yrotation
							JOINT RightWrist
							{
OFFSET 0 -3.418090 -0.000000
CHANNELS 3 Zrotation Xrotation Yrotation
								JOINT rhand
								{
									OFFSET 0 0 0
CHANNELS 3 Zrotation Xrotation Yrotation
									JOINT RFingers
									{
OFFSET 0 -0.775340 -0.000000
CHANNELS 3 Zrotation Xrotation Yrotation
										End Site
										{
OFFSET 0 -0.625100 -0.000000
										}
									}
								}
								JOINT RThumb
								{
OFFSET 0 0.000000 0.000000
CHANNELS 3 Zrotation Xrotation Yrotation
									End Site
									{
OFFSET 0 -0.634640 0.634640
									}
								}
							}
						}
					}
				}
			}
		}
	}
}
MOTION
Frames: 9
Frame Time: 0.008333333333333333
1.770100 17.426000 -35.855300 -1.149500 6.665600 5.693500 0.000000 0.000000 0.000000 -21.945300 -6.641800 -11.865200 2.230800 9.331100 26.836500 1.349500 -10.146600 -20.923800 0.002300 0.309000 0.849000 0.000000 0.000000 0.000000 21.155800 0.319800 -19.109300 -4.292900 -12.540300 37.671100 -1.203600 5.766100 -19.630000 -0.310800 -3.583800 9.908500 -5.333700 -1.858500 3.056400 1.785500 -2.582400 3.338600 4.864900 -1.435800 2.057600 -7.425000 -4.016200 -5.034200 0.109800 -4.550300 40.391700 0.750100 -3.044300 15.192800 -0.000000 -0.000000 0.000000 5.055000 4.817600 -10.286000 19.900000 -30.521600 5.480500 2.000900 10.324700 -41.467000 0.000000 0.000000 0.000000 -7.125000 0.000000 0.000000 -45.314900 65.986300 25.130000 -0.000000 -0.000000 0.000000 -8.241700 -2.533700 -9.490500 -9.600400 -16.112100 -1.361900 -24.843200 -6.715000 -27.840000 0.000000 0.000000 0.000000 7.125000 0.000000 -0.000000 3.246400 -0.176300 3.261600
1.767260 17.417649 -35.845351 -1.175206 6.662786 5.694854 0.000000 0.000000 0.000000 -21.895317 -6.642448 -11.933167 2.262600 9.392780 27.031975 1.387315 -10.203295 -21.210546 0.000167 -0.090576 -0.248893 0.000000 0.000000 0.000000 21.264523 0.156470 -18.414057 -4.003867 -12.164462 36.317802 -1.231661 6.203328 -19.844541 -0.408010 -4.087658 11.325127 -5.237375 -1.874836 2.962248 1.690914 -2.596745 3.333988 4.708484 -1.440207 2.097481 -7.517291 -3.745031 -4.613308 0.358128 -4.248076 40.053338 0.926338 -2.896212 14.917156 0.000000 0.000000 0.000000 5.200397 4.955207 -10.676686 20.364857 -31.079355 5.718500 1.698802 9.167628 -41.959081 0.000000 0.000000 0.000000 -7.125000 0.000000 0.000000 -46.424742 66.232099 26.119309 0.000000 0.000000 0.000000 -8.104672 -2.518538 -9.521830 -9.534410 -16.008012 -1.343718 -25.107048 -7.018975 -28.375764 0.000000 0.000000 0.000000 7.125000 0.000000 0.000000 3.170000 -0.794957 3.218611
1.759457 17.412366 -35.836101 -1.273645 6.695569 5.640633 0.000000 0.000000 0.000000 -21.757017 -6.761791 -11.933188 2.305345 9.475024 27.292838 1.416273 -10.160672 -21.419185 0.000820 -0.173783 -0.477482 0.000000 0.000000 0.000000 21.520401 0.107250 -17.657050 -3.740194 -11.805463 35.048503 -1.359197 5.372861 -20.929803 -0.312587 -3.594314 9.938137 -5.186895 -1.851958 2.993404 1.668566 -2.566610 3.334033 4.657787 -1.422909 2.072668 -7.551866 -3.567216 -4.518081 0.471676 -4.019293 40.013558 1.014520 -2.788872 14.866345 0.000000 0.000000 0.000000 5.260412 4.883520 -10.915351 20.722928 -31.502684 5.904802 1.884033 8.565068 -42.175048 0.000000 0.000000 0.000000 -7.125000 0.000000 0.000000 -46.626246 66.432509 26.462715 0.000000 0.000000 0.000000 -8.002957 -2.418458 -9.334514 -9.581698 -16.082553 -1.356787 -25.427048 -7.593688 -28.456845 0.000000 0.000000 0.000000 7.125000 0.000000 0.000000 2.995186 -0.951420 3.048410
1.754250 17.410009 -35.824089 -1.456396 6.611927 5.809045 0.000000 0.000000 0.000000 -21.532881 -7.181595 -12.100732 2.341823 9.544395 27.513519 1.410885 -9.944145 -21.358749 0.003752 0.385167 1.058285 0.000000 0.000000 0.000000 21.860699 0.331255 -17.041758 -3.497609 -11.460056 33.847580 -1.414004 5.369048 -21.363197 -0.429843 -4.206488 11.658511 -5.090022 -1.811988 2.635592 1.709204 -2.495179 3.357518 4.631874 -1.392113 2.286325 -7.608824 -3.601197 -4.541753 0.516983 -4.071527 39.916803 1.036496 -2.811890 14.829616 0.000000 0.000000 0.000000 5.274483 4.645399 -11.147846 21.061532 -31.900130 6.082420 1.293638 7.498734 -43.195184 0.000000 0.000000 0.000000 -7.125000 0.000000 0.000000 -48.927583 66.936751 28.546830 0.000000 0.000000 0.000000 -8.002203 -2.321015 -8.784517 -9.693122 -16.258156 -1.387832 -25.535567 -8.504216 -28.599153 0.000000 0.000000 0.000000 7.125000 0.000000 0.000000 2.953318 -1.124702 3.014722
1.744690 17.404709 -35.822957 -1.672457 6.578117 5.911968 0.000000 0.000000 0.000000 -21.228783 -7.282594 -12.354979 2.386560 9.628622 27.782280 1.409577 -9.657235 -21.323890 0.002749 -0.332452 -0.913457 0.000000 0.000000 0.000000 22.290702 0.590064 -16.452313 -3.285576 -11.142857 32.763982 -1.457096 4.868070 -21.750306 -0.370418 -3.904263 10.808191 -4.884167 -1.785033 2.551766 1.709297 -2.453469 3.326106 4.513500 -1.365541 2.285333 -7.653915 -3.639056 -4.502515 0.491410 -4.111278 39.977261 1.028548 -2.840068 14.855328 0.000000 0.000000 0.000000 5.275194 4.484461 -11.130392 21.321823 -32.201773 6.220680 1.673896 6.809000 -41.568438 0.000000 0.000000 0.000000 -7.125000 0.000000 0.000000 -45.793296 65.959348 25.418648 0.000000 0.000000 0.000000 -7.852737 -2.318051 -8.955779 -9.697410 -16.264869 -1.388980 -25.931891 -8.784867 -28.588392 0.000000 0.000000 0.000000 7.125000 0.000000 0.000000 2.720641 -1.203594 2.780096
1.740810 17.408708 -35.810484 -1.908083 6.334044 5.960154 0.000000 0.000000 0.000000 -20.953240 -7.182652 -12.543698 2.425001 9.700185 28.011289 1.419881 -9.572053 -21.392992 0.002610 -0.319465 -0.877857 0.000000 0.000000 0.000000 22.691525 0.792646 -15.740971 -3.090079 -10.838704 31.738534 -1.502063 4.615168 -22.128629 -0.404911 -4.084108 11.313476 -4.745910 -1.657999 2.406031 1.762958 -2.277722 3.293198 4.487861 -1.275042 2.308613 -7.864316 -3.750437 -4.359116 0.672041 -4.315593 40.043309 1.115733 -2.937731 14.881389 0.000000 0.000000 0.000000 5.209025 4.370567 -11.379355 21.642721 -32.570767 6.392494 1.640281 6.336723 -41.540917 0.000000 0.000000 0.000000 -7.125000 0.000000 0.000000 -45.780566 65.930348 25.381334 0.000000 0.000000 0.000000 -7.888782 -2.229417 -9.087464 -9.660299 -16.206502 -1.378643 -26.067604 -8.928002 -28.905900 0.000000 0.000000 0.000000 7.125000 0.000000 0.000000 2.691282 -1.568022 2.767034
1.729771 17.415320 -35.809330 -2.106618 6.195261 6.081057 0.000000 0.000000 0.000000 -20.656334 -7.348771 -12.700506 2.453573 9.752959 28.180403 1.379168 -9.727752 -21.103658 0.003434 0.357547 0.982503 0.000000 0.000000 0.000000 23.093679 1.232036 -15.092755 -2.895576 -10.523836 30.690565 -1.535933 3.901882 -22.490945 -0.472726 -4.408895 12.230129 -4.513962 -1.643742 2.407219 1.706269 -2.256768 3.204104 4.299520 -1.253514 2.199734 -7.805332 -3.738448 -4.413028 0.634146 -4.291834 40.067519 1.091009 -2.925413 14.900765 0.000000 0.000000 0.000000 5.232254 4.228340 -11.120108 21.904312 -32.868632 6.533811 1.499202 6.206488 -42.411353 0.000000 0.000000 0.000000 -7.125000 0.000000 0.000000 -47.364716 66.481166 26.998559 0.000000 0.000000 0.000000 -7.749326 -2.195403 -8.791604 -9.609891 -16.127068 -1.364568 -26.659687 -9.381081 -28.907835 0.000000 0.000000 0.000000 7.125000 0.000000 0.000000 2.347731 -1.708544 2.418754
1.722157 17.421073 -35.799593 -2.338564 5.760750 6.100481 0.000000 0.000000 0.000000 -20.391999 -7.149320 -12.848673 2.468846 9.781088 28.270600 1.389454 -9.598459 -21.169385 0.002311 0.272668 0.749288 0.000000 0.000000 0.000000 23.500816 1.772131 -14.386897 -2.729382 -10.243008 29.767695 -1.545683 3.275500 -22.677039 -0.373531 -3.925592 10.867374 -4.297104 -1.504516 2.281288 1.699996 -2.064084 3.207722 4.167414 -1.153106 2.243741 -7.899093 -3.822777 -4.318361 0.603247 -4.397143 40.074987 1.081421 -2.989413 14.893656 0.000000 0.000000 0.000000 5.138756 4.063808 -10.891066 22.169622 -33.168094 6.678456 1.794202 6.468591 -41.731931 0.000000 0.000000 0.000000 -7.125000 0.000000 0.000000 -45.946223 66.106592 25.670278 0.000000 0.000000 0.000000 -7.718974 -2.221453 -9.173399 -9.513848 -15.975620 -1.338078 -26.329039 -8.997960 -29.317611 0.000000 0.000000 0.000000 7.125000 0.000000 0.000000 2.605992 -2.060680 2.701218
1.718456 17.434000 -35.798476 -2.392851 5.593288 6.122370 0.000000 0.000000 0.000000 -20.328938 -7.593123 -12.645587 2.473809 9.790086 28.299583 1.356125 -9.485090 -20.910008 0.039664 1.171777 3.222894 0.000000 0.000000 0.000000 23.642562 2.190272 -13.825137 -2.596955 -10.011678 29.015002 -1.529364 2.784127 -22.647411 -0.339495 -3.741858 10.351761 -4.251432 -1.450440 2.275189 1.694633 -1.991366 3.200029 4.136330 -1.115158 2.229427 -8.068739 -3.975833 -4.111830 0.597143 -4.612216 40.230776 1.081844 -3.111609 14.947229 0.000000 0.000000 0.000000 5.031438 4.032741 -11.011322 22.528862 -33.569008 6.876239 2.387308 6.629575 -41.426983 0.000000 0.000000 0.000000 -7.125000 0.000000 0.000000 -44.882420 66.072273 24.933313 0.000000 0.000000 0.000000 -7.699287 -2.136372 -8.986487 -9.584746 -16.087452 -1.357631 -26.113475 -9.420838 -29.706886 0.000000 0.000000 0.000000 7.125000 0.000000 0.000000 2.793675 -2.418245 2.912345
